<svg version="1.1" id="Layer_1" xmlns="http://www.w3.org/2000/svg" x="0" y="0" viewBox="0 0 201.6 115.56" style="enable-background:new 0 0 201.6 115.56" xml:space="preserve"><style>.st0{fill:#8986c1}.st1{fill:#bd8648}.st2{fill:#fed700}.st3{fill:#bd8647}</style><path class="st0" d="M87.77 18.97H82.8v-1.45h4.96v1.45zM91.34 17.37c-.28 0-.52-.09-.7-.28a.942.942 0 0 1-.28-.7c0-.28.09-.52.28-.7.19-.19.42-.28.7-.28h.31c.28 0 .52.09.7.28.19.19.28.42.28.7 0 .28-.09.52-.28.7-.19.19-.42.28-.7.28h-.31zM99.97 14.58h-4.55v-1.45h4.55v1.45zM103.75 17.37c-.28 0-.52-.09-.7-.28a.942.942 0 0 1-.28-.7c0-.28.09-.52.28-.7.19-.19.42-.28.7-.28h.31c.28 0 .52.09.7.28.19.19.28.42.28.7 0 .28-.09.52-.28.7-.19.19-.42.28-.7.28h-.31z"/><path class="st1" d="M124.78 12.05c.35.38.52.91.52 1.6v.47h-1.65v-.36c0-.31-.08-.55-.25-.72-.16-.17-.39-.26-.68-.26s-.51.09-.67.26c-.16.17-.24.41-.24.72v3.52h-1.55v-5.69h1.45v1.09h.02c.09-.39.27-.69.54-.89.27-.2.62-.3 1.06-.3.62-.01 1.11.18 1.45.56zM128.48 17.37c-.46 0-.87-.07-1.23-.22-.36-.14-.63-.35-.83-.62-.2-.27-.3-.58-.3-.92h1.55c0 .17.07.3.22.4.14.1.34.15.58.15h.45c.28 0 .5-.05.65-.15.15-.1.22-.25.22-.43 0-.17-.07-.31-.2-.4-.13-.09-.33-.16-.61-.19l-.66-.08c-.72-.09-1.24-.26-1.56-.52-.32-.26-.48-.65-.48-1.16 0-.56.19-.99.57-1.29.38-.3.94-.45 1.66-.45h.39c.69 0 1.24.15 1.66.46.42.3.63.71.63 1.22h-1.55c0-.14-.07-.25-.2-.34-.13-.09-.31-.13-.53-.13h-.39c-.25 0-.44.04-.56.13-.12.09-.18.22-.18.39 0 .16.05.28.15.36.1.08.28.14.52.18l.71.09c.73.1 1.27.28 1.61.55.34.27.51.67.51 1.19 0 .58-.2 1.02-.6 1.33-.4.31-.99.47-1.76.47h-.44zM133.13 16.76c-.43-.41-.65-.98-.65-1.7v-3.47h1.55v3.46c0 .32.08.56.23.73.15.17.37.25.66.25.28 0 .5-.08.66-.25.15-.17.23-.41.23-.73v-3.46h1.55v3.47c0 .72-.22 1.29-.65 1.7-.43.41-1.03.62-1.79.62-.76-.01-1.36-.21-1.79-.62zM142.06 17.27c-.61 0-1.09-.18-1.46-.55-.37-.37-.55-.86-.55-1.46v-4.14h-1.76v-1.4h3.31v5.53c0 .19.06.34.17.45.11.11.26.17.45.17h1.65v1.4h-1.81zM147.95 17.27c-.58 0-1.03-.17-1.37-.5-.33-.33-.5-.79-.5-1.37v-2.43h-1.5v-1.4h1.5v-1.55h1.55v1.55h2.12v1.4h-2.12v2.43c0 .15.04.27.12.35.08.08.2.12.35.12h1.55v1.4h-1.7z"/><path class="st2" d="M60.31 29.78c-.28 0-.52-.09-.7-.28-.19-.19-.28-.42-.28-.7s.09-.52.28-.7c.19-.19.42-.28.7-.28h.31c.28 0 .52.09.7.28.19.19.28.42.28.7s-.09.52-.28.7c-.19.19-.42.28-.7.28h-.31zM68.95 26.99H64.4v-1.45h4.55v1.45zM72.72 29.78c-.28 0-.52-.09-.7-.28-.19-.19-.28-.42-.28-.7s.09-.52.28-.7c.19-.19.42-.28.7-.28h.31c.28 0 .52.09.7.28.19.19.28.42.28.7s-.09.52-.28.7c-.19.19-.42.28-.7.28h-.31z"/><path class="st0" d="M92.73 23.01h-1.45l-1.34-1.45h1.55l1.24 1.45zM95.78 29.4c.58-.14 1.03-.43 1.37-.86s.5-.97.5-1.59v-1.98c0-.63-.16-1.17-.49-1.61-.33-.44-.78-.73-1.37-.87v-1.55c1.08.29 1.91.79 2.51 1.5.6.71.9 1.56.9 2.53v1.98c0 1-.29 1.85-.88 2.54-.59.69-1.43 1.19-2.53 1.48V29.4zM110.88 30.82h-1.55V21.1h1.55v9.72z"/><path class="st2" d="M128.56 29.78c-.28 0-.52-.09-.7-.28-.19-.19-.28-.42-.28-.7s.09-.52.28-.7c.19-.19.42-.28.7-.28h.31c.28 0 .52.09.7.28.19.19.28.42.28.7s-.09.52-.28.7c-.19.19-.42.28-.7.28h-.31zM137.2 26.99h-4.55v-1.45h4.55v1.45zM140.97 29.78c-.28 0-.52-.09-.7-.28-.19-.19-.28-.42-.28-.7s.09-.52.28-.7c.19-.19.42-.28.7-.28h.31c.28 0 .52.09.7.28.19.19.28.42.28.7s-.09.52-.28.7c-.19.19-.42.28-.7.28h-.31zM38.13 43.79h-4.96v-1.45h4.96v1.45zM41.7 42.19c-.28 0-.52-.09-.7-.28a.942.942 0 0 1-.28-.7c0-.28.09-.52.28-.7.19-.19.42-.28.7-.28h.31c.28 0 .52.09.7.28s.28.42.28.7c0 .28-.09.52-.28.7s-.42.28-.7.28h-.31zM48.69 37.64h-1.25l-.14-1.45v-1.65h1.53v1.65l-.14 1.45zM55.5 35.42h-1.45l-1.34-1.45h1.55l1.24 1.45zM60.31 42.19c-.28 0-.52-.09-.7-.28a.942.942 0 0 1-.28-.7c0-.28.09-.52.28-.7.19-.19.42-.28.7-.28h.31c.28 0 .52.09.7.28.19.19.28.42.28.7 0 .28-.09.52-.28.7-.19.19-.42.28-.7.28h-.31zM72.72 42.19c-.28 0-.52-.09-.7-.28a.942.942 0 0 1-.28-.7c0-.28.09-.52.28-.7.19-.19.42-.28.7-.28h.31c.28 0 .52.09.7.28.19.19.28.42.28.7 0 .28-.09.52-.28.7-.19.19-.42.28-.7.28h-.31zM76.39 38.57c0-.44.14-.79.43-1.05s.68-.39 1.17-.39c.28 0 .51.04.7.13.19.09.35.2.47.32s.24.28.37.47c.13.19.24.32.33.4.09.08.2.12.33.12.11 0 .19-.03.25-.09s.08-.15.08-.27v-.78h1.24v.88c0 .44-.14.79-.43 1.05s-.68.39-1.17.39c-.28 0-.51-.04-.7-.13-.19-.09-.35-.2-.47-.32s-.24-.28-.37-.47a2.24 2.24 0 0 0-.33-.4.479.479 0 0 0-.33-.12c-.11 0-.19.03-.25.09-.05.06-.08.15-.08.27v.78h-1.24v-.88zM85.13 42.19c-.28 0-.52-.09-.7-.28a.942.942 0 0 1-.28-.7c0-.28.09-.52.28-.7.19-.19.42-.28.7-.28h.31c.28 0 .52.09.7.28.19.19.28.42.28.7 0 .28-.09.52-.28.7-.19.19-.42.28-.7.28h-.31z"/><path class="st0" d="M90.51 43.23h-1.6l3.57-9.72h1.6l-3.57 9.72zM112.68 43.23h-1.6l-3.57-9.72h1.6l3.57 9.72z"/><path class="st2" d="M116.15 42.19c-.28 0-.52-.09-.7-.28a.942.942 0 0 1-.28-.7c0-.28.09-.52.28-.7.19-.19.42-.28.7-.28h.31c.28 0 .52.09.7.28.19.19.28.42.28.7 0 .28-.09.52-.28.7-.19.19-.42.28-.7.28h-.31zM119.83 38.57c0-.44.14-.79.43-1.05s.68-.39 1.17-.39c.28 0 .51.04.7.13.19.09.35.2.47.32s.24.28.37.47c.13.19.24.32.33.4.09.08.2.12.33.12.11 0 .19-.03.25-.09s.08-.15.08-.27v-.78h1.24v.88c0 .44-.14.79-.43 1.05s-.68.39-1.17.39c-.28 0-.51-.04-.7-.13-.19-.09-.35-.2-.47-.32s-.24-.28-.37-.47a2.24 2.24 0 0 0-.33-.4.479.479 0 0 0-.33-.12c-.11 0-.19.03-.25.09-.05.06-.08.15-.08.27v.78h-1.24v-.88zM128.56 42.19c-.28 0-.52-.09-.7-.28a.942.942 0 0 1-.28-.7c0-.28.09-.52.28-.7.19-.19.42-.28.7-.28h.31c.28 0 .52.09.7.28.19.19.28.42.28.7 0 .28-.09.52-.28.7-.19.19-.42.28-.7.28h-.31zM140.97 42.19c-.28 0-.52-.09-.7-.28a.942.942 0 0 1-.28-.7c0-.28.09-.52.28-.7.19-.19.42-.28.7-.28h.31c.28 0 .52.09.7.28.19.19.28.42.28.7 0 .28-.09.52-.28.7-.19.19-.42.28-.7.28h-.31zM148.57 35.42h-1.45l-1.34-1.45h1.55l1.24 1.45zM154.17 37.64h-1.25l-.14-1.45v-1.65h1.53v1.65l-.14 1.45zM159.59 42.19c-.28 0-.52-.09-.7-.28a.942.942 0 0 1-.28-.7c0-.28.09-.52.28-.7.19-.19.42-.28.7-.28h.31c.28 0 .52.09.7.28.19.19.28.42.28.7 0 .28-.09.52-.28.7-.19.19-.42.28-.7.28h-.31zM168.43 43.79h-4.96v-1.45h4.96v1.45zM16.88 54.6c-.28 0-.52-.09-.7-.28-.19-.19-.28-.42-.28-.7s.09-.52.28-.7c.19-.19.42-.28.7-.28h.31c.28 0 .52.09.7.28.19.19.28.42.28.7s-.09.52-.28.7c-.19.19-.42.28-.7.28h-.31zM25.52 51.81h-4.55v-1.45h4.55v1.45zM30.08 50.05h-1.25l-.14-1.45v-1.65h1.53v1.65l-.14 1.45zM41.7 54.6c-.28 0-.52-.09-.7-.28-.19-.19-.28-.42-.28-.7s.09-.52.28-.7c.19-.19.42-.28.7-.28h.31c.28 0 .52.09.7.28.19.19.28.42.28.7s-.09.52-.28.7c-.19.19-.42.28-.7.28h-.31zM48.69 50.05h-1.25l-.14-1.45v-1.65h1.53v1.65l-.14 1.45zM54.11 54.6c-.28 0-.52-.09-.7-.28-.19-.19-.28-.42-.28-.7s.09-.52.28-.7c.19-.19.42-.28.7-.28h.31c.28 0 .52.09.7.28.19.19.28.42.28.7s-.09.52-.28.7c-.19.19-.42.28-.7.28h-.31zM61.1 50.05h-1.25l-.15-1.45v-1.65h1.53v1.65l-.13 1.45zM66.52 54.6c-.28 0-.52-.09-.7-.28-.19-.19-.28-.42-.28-.7s.09-.52.28-.7c.19-.19.42-.28.7-.28h.31c.28 0 .52.09.7.28.19.19.28.42.28.7s-.09.52-.28.7c-.19.19-.42.28-.7.28h-.31zM73.51 50.05h-1.25l-.14-1.45v-1.65h1.53v1.65l-.14 1.45zM78.93 54.6c-.28 0-.52-.09-.7-.28-.19-.19-.28-.42-.28-.7s.09-.52.28-.7c.19-.19.42-.28.7-.28h.31c.28 0 .52.09.7.28.19.19.28.42.28.7s-.09.52-.28.7c-.19.19-.42.28-.7.28h-.31zM87.56 51.81h-4.55v-1.45h4.55v1.45z"/><path class="st0" d="M92.27 55.63h-1.55v-9.72h1.55v9.72zM110.88 55.63h-1.55v-9.72h1.55v9.72z"/><path class="st2" d="M118.58 51.81h-4.55v-1.45h4.55v1.45zM122.36 54.6c-.28 0-.52-.09-.7-.28-.19-.19-.28-.42-.28-.7s.09-.52.28-.7c.19-.19.42-.28.7-.28h.31c.28 0 .52.09.7.28.19.19.28.42.28.7s-.09.52-.28.7c-.19.19-.42.28-.7.28h-.31zM129.35 50.05h-1.25l-.14-1.45v-1.65h1.53v1.65l-.14 1.45zM134.77 54.6c-.28 0-.52-.09-.7-.28-.19-.19-.28-.42-.28-.7s.09-.52.28-.7c.19-.19.42-.28.7-.28h.31c.28 0 .52.09.7.28.19.19.28.42.28.7s-.09.52-.28.7c-.19.19-.42.28-.7.28h-.31zM141.76 50.05h-1.25l-.14-1.45v-1.65h1.53v1.65l-.14 1.45zM147.18 54.6c-.28 0-.52-.09-.7-.28-.19-.19-.28-.42-.28-.7s.09-.52.28-.7c.19-.19.42-.28.7-.28h.31c.28 0 .52.09.7.28.19.19.28.42.28.7s-.09.52-.28.7c-.19.19-.42.28-.7.28h-.31zM154.17 50.05h-1.25l-.14-1.45v-1.65h1.53v1.65l-.14 1.45zM159.59 54.6c-.28 0-.52-.09-.7-.28-.19-.19-.28-.42-.28-.7s.09-.52.28-.7c.19-.19.42-.28.7-.28h.31c.28 0 .52.09.7.28.19.19.28.42.28.7s-.09.52-.28.7c-.19.19-.42.28-.7.28h-.31zM172.78 50.05h-1.25l-.14-1.45v-1.65h1.53v1.65l-.14 1.45zM180.63 51.81h-4.55v-1.45h4.55v1.45zM184.4 54.6c-.28 0-.52-.09-.7-.28-.19-.19-.28-.42-.28-.7s.09-.52.28-.7c.19-.19.42-.28.7-.28h.31c.28 0 .52.09.7.28.19.19.28.42.28.7s-.09.52-.28.7c-.19.19-.42.28-.7.28h-.31zM24.48 60.24h-1.45l-1.34-1.45h1.55l1.24 1.45zM30.08 62.46h-1.25l-.14-1.45v-1.65h1.53v1.65l-.14 1.45zM36.89 60.24h-1.45l-1.34-1.45h1.55l1.24 1.45zM42.49 62.46h-1.25l-.14-1.45v-1.65h1.53v1.65l-.14 1.45zM49.3 60.24h-1.45l-1.34-1.45h1.55l1.24 1.45zM54.89 62.46h-1.25l-.14-1.45v-1.65h1.53v1.65l-.14 1.45zM61.71 60.24h-1.45l-1.34-1.45h1.55l1.24 1.45zM67.3 62.46h-1.25l-.14-1.45v-1.65h1.53v1.65l-.14 1.45zM74.12 60.24h-1.45l-1.34-1.45h1.55l1.24 1.45z"/><path class="st0" d="M102.92 68.04h-1.6l3.57-9.72h1.6l-3.57 9.72z"/><path class="st2" d="M123.76 60.24h-1.45l-1.34-1.45h1.55l1.24 1.45zM129.35 62.46h-1.25l-.14-1.45v-1.65h1.53v1.65l-.14 1.45zM136.16 60.24h-1.45l-1.34-1.45h1.55l1.24 1.45zM141.76 62.46h-1.25l-.14-1.45v-1.65h1.53v1.65l-.14 1.45zM148.57 60.24h-1.45l-1.34-1.45h1.55l1.24 1.45zM154.17 62.46h-1.25l-.14-1.45v-1.65h1.53v1.65l-.14 1.45zM160.98 60.24h-1.45l-1.34-1.45h1.55l1.24 1.45zM166.58 62.46h-1.25l-.14-1.45v-1.65h1.53v1.65l-.14 1.45zM173.39 60.24h-1.45l-1.34-1.45h1.55l1.24 1.45z"/><path class="st0" d="M90.51 80.45h-1.6l3.57-9.72h1.6l-3.57 9.72zM98.47 80.45h-1.55v-9.72h1.55v9.72zM104.68 80.45h-1.55v-9.72h1.55v9.72zM112.68 80.45h-1.6l-3.57-9.72h1.6l3.57 9.72zM84.3 92.86h-1.6l3.57-9.72h1.6l-3.57 9.72zM90.51 92.86h-1.6l3.57-9.72h1.6l-3.57 9.72zM98.47 92.86h-1.55v-9.72h1.55v9.72zM104.68 92.86h-1.55v-9.72h1.55v9.72zM118.88 92.86h-1.6l-3.57-9.72h1.6l3.57 9.72z"/><path class="st3" d="M81.56 93.43H76.6v-1.45h4.96v1.45zM112.59 93.43h-4.96v-1.45h4.96v1.45zM125 93.43h-4.96v-1.45H125v1.45zM131.2 93.43h-4.96v-1.45h4.96v1.45zM71.89 105.27h-1.6l3.57-9.72h1.6l-3.57 9.72zM81.56 105.84H76.6v-1.45h4.96v1.45zM87.77 105.84H82.8v-1.45h4.96v1.45zM93.97 105.84h-4.96v-1.45h4.96v1.45zM100.18 105.84h-4.96v-1.45h4.96v1.45zM106.38 105.84h-4.96v-1.45h4.96v1.45zM112.59 105.84h-4.96v-1.45h4.96v1.45zM118.79 105.84h-4.96v-1.45h4.96v1.45zM125 105.84h-4.96v-1.45H125v1.45zM131.2 105.84h-4.96v-1.45h4.96v1.45zM137.5 105.27h-1.6l-3.57-9.72h1.6l3.57 9.72z"/></svg>
